<svg width="24" height="24" viewBox="0 0 24 24" fill="none" xmlns="http://www.w3.org/2000/svg">
<path fill-rule="evenodd" clip-rule="evenodd" d="M14.4 3.2H12.8V0H11.2V3.2H9.6C7.05392 3.2 4.61212 4.21143 2.81177 6.01178C1.01143 7.81212 0 10.2539 0 12.8C0 15.3461 1.01143 17.7879 2.81177 19.5882C4.61212 21.3886 7.05392 22.4 9.6 22.4H14.4C14.608 22.4 14.8155 22.3931 15.0224 22.3792L21.4064 23.976C21.5403 24.0093 21.6806 24.0075 21.8136 23.9706C21.9466 23.9337 22.0678 23.863 22.1654 23.7654C22.263 23.6678 22.3337 23.5466 22.3706 23.4136C22.4075 23.2806 22.4093 23.1403 22.376 23.0064L21.4528 19.312C22.7186 17.9409 23.5573 16.2307 23.8665 14.3905C24.1756 12.5502 23.9418 10.6598 23.1935 8.9504C22.4452 7.24098 21.215 5.7867 19.6533 4.76543C18.0915 3.74415 16.266 3.20016 14.4 3.2ZM8 10.4C8 9.33913 8.42143 8.32172 9.17157 7.57157C9.92172 6.82143 10.9391 6.4 12 6.4C13.0609 6.4 14.0783 6.82143 14.8284 7.57157C15.5786 8.32172 16 9.33913 16 10.4C16 11.4609 15.5786 12.4783 14.8284 13.2284C14.0783 13.9786 13.0609 14.4 12 14.4C10.9391 14.4 9.92172 13.9786 9.17157 13.2284C8.42143 12.4783 8 11.4609 8 10.4ZM12 19.2C10.3634 19.2028 8.7752 18.6456 7.4992 17.6208L8.5008 16.3728C9.4592 17.1408 10.6752 17.6 12 17.6C13.3248 17.6 14.5408 17.1408 15.4992 16.3728L16.5008 17.6208C15.2248 18.6456 13.6366 19.2028 12 19.2Z" fill="#B5C934"/>
</svg>
