<svg width="26" height="27" viewBox="0 0 26 27" fill="none" xmlns="http://www.w3.org/2000/svg">
<path opacity="0.987" fill-rule="evenodd" clip-rule="evenodd" d="M11.1736 0.113906C12.533 -0.0379688 13.3373 -0.0379688 14.798 0.113906C17.3835 0.496585 19.7802 1.69169 21.6417 3.52641C20.3838 4.71541 19.1424 5.92178 17.918 7.14516C15.573 5.15766 12.9555 4.69891 10.0655 5.76891C7.94545 6.74391 6.4692 8.32391 5.6367 10.5089C4.27628 9.49609 2.93358 8.45968 1.6092 7.40016C1.51717 7.35171 1.41204 7.33397 1.3092 7.34953C3.41295 3.29328 6.70045 0.880781 11.1717 0.112031" fill="#F44336"/>
<path opacity="0.997" fill-rule="evenodd" clip-rule="evenodd" d="M1.30547 7.34955C1.41172 7.3333 1.51235 7.35017 1.60735 7.40017C2.93172 8.4597 4.27442 9.4961 5.63485 10.5089C5.42077 11.3603 5.28582 12.2296 5.23172 13.1058C5.27797 13.9533 5.41235 14.7852 5.63485 15.6014L1.40672 18.967C-0.434527 15.1195 -0.468277 11.247 1.30547 7.34955Z" fill="#FFC107"/>
<path opacity="0.999" fill-rule="evenodd" clip-rule="evenodd" d="M21.4411 23.0433C20.1246 21.8822 18.7464 20.7931 17.3124 19.7808C18.7499 18.7658 19.6224 17.3733 19.9299 15.6033H12.8855V10.7114C16.948 10.6776 21.0086 10.712 25.0674 10.8145C25.8374 14.9958 24.948 18.7658 22.3992 22.1245C22.0962 22.4467 21.7752 22.7533 21.4411 23.0433Z" fill="#448AFF"/>
<path opacity="0.993" fill-rule="evenodd" clip-rule="evenodd" d="M5.63486 15.6033C7.17236 19.4245 9.99111 21.2083 14.0911 20.9545C15.2421 20.8213 16.3455 20.4192 17.3124 19.7808C18.7474 20.7958 20.1236 21.8833 21.4411 23.0433C19.3536 24.9191 16.6919 26.0322 13.8905 26.2008C13.254 26.2517 12.6145 26.2517 11.978 26.2008C7.20549 25.6383 3.68174 23.227 1.40674 18.967L5.63486 15.6033Z" fill="#43A047"/>
</svg>
