<svg width="276" height="180" viewBox="0 0 276 180" fill="none" xmlns="http://www.w3.org/2000/svg">
<path d="M47.558 171.558L39.9705 163.97L32.1367 171.769L39.9705 179.604L47.558 171.982L55.1798 179.604L62.9782 171.769L55.1798 163.97L47.558 171.558Z" fill="#B5C934"/>
<path d="M15.4213 10.5875L7.83379 3L0 10.7995L7.83379 18.6333L15.4213 11.0115L23.0421 18.6333L30.8415 10.7995L23.0421 3L15.4213 10.5875Z" fill="#B5C934"/>
<path d="M68.3822 14.7548L69.1272 30.2649L97.4076 55.7519L100 43.2502L68.3822 14.7548Z" fill="#B5C934"/>
<path d="M67.1425 57.8537V151.581C67.1425 152.951 65.5969 153.582 64.437 153.618C64.437 162.892 78.1724 164.122 78.1724 151.581V46.9631L67.1425 57.8537Z" fill="#252528"/>
<path d="M16.7023 87.5716H12.6855V36.6702C12.6855 34.0313 16.7023 34.0313 16.7023 36.6702V87.5716ZM1.59302 36.6702V98.6036H16.7023V149.566C16.7023 152.263 12.6855 152.263 12.6855 149.566V101.182L1.59302 111.974V149.566C1.59302 166.952 27.7343 166.952 27.7343 149.566V36.6702C27.7343 19.2834 1.59302 19.2834 1.59302 36.6702Z" fill="#252528"/>
<path d="M49.6769 71.5316H45.6601V35.6183C45.6601 32.9804 49.6769 32.9804 49.6769 35.6183V71.5316ZM34.6282 35.6183V82.5635H49.6769V86.5198H34.6282V112.661H49.6769V148.514C49.6769 151.152 45.6601 151.152 45.6601 148.514V115.119L34.6282 125.97V148.514C34.6282 156.967 40.8044 161.284 47.1592 161.524H48.1182C54.4741 161.344 60.7089 156.967 60.7089 148.514V101.569H45.6601V97.5517H60.7089V35.6183C60.7089 18.2315 34.6282 18.2315 34.6282 35.6183Z" fill="#252528"/>
<path d="M55.4928 10.857L47.6388 3.06262L39.8444 10.857L47.6388 18.6515L55.4928 10.857Z" fill="#B5C934"/>
<path d="M160.938 76V68.402H167.028V76H160.938ZM130.662 91.428C127.375 91.428 124.417 90.8093 121.788 89.572C119.159 88.3733 117.09 86.6913 115.582 84.526C114.074 82.3993 113.32 79.9827 113.32 77.276C113.32 76.5027 113.378 75.478 113.494 74.202C113.61 72.8873 113.765 71.4567 113.958 69.91C114.19 68.3247 114.422 66.7007 114.654 65.038C114.925 63.3753 115.176 61.7707 115.408 60.224L124.166 61.384C123.779 63.9747 123.431 66.314 123.122 68.402C122.813 70.49 122.581 72.2687 122.426 73.738C122.271 75.2073 122.194 76.3287 122.194 77.102C122.194 78.5713 122.523 79.7893 123.18 80.756C123.837 81.7613 124.804 82.5153 126.08 83.018C127.356 83.5593 128.883 83.83 130.662 83.83H144.35C146.129 83.83 147.579 83.598 148.7 83.134C149.86 82.67 150.711 81.974 151.252 81.046C151.793 80.118 152.064 78.9773 152.064 77.624V52.916L153.92 54.424H147.482C145.935 54.424 144.717 54.6367 143.828 55.062C142.977 55.4487 142.359 56.1447 141.972 57.15C141.624 58.1553 141.45 59.586 141.45 61.442C141.45 63.4913 141.624 65.0187 141.972 66.024C142.359 66.9907 142.977 67.6287 143.828 67.938C144.717 68.2473 145.935 68.402 147.482 68.402H152.064V76H147.482C144.195 76 141.45 75.478 139.246 74.434C137.042 73.39 135.379 71.8047 134.258 69.678C133.137 67.5127 132.576 64.7673 132.576 61.442C132.576 58.31 133.137 55.6613 134.258 53.496C135.379 51.3307 137.042 49.6873 139.246 48.566C141.45 47.406 144.195 46.826 147.482 46.826H160.938V77.624C160.938 80.408 160.223 82.8247 158.792 84.874C157.4 86.962 155.447 88.5667 152.934 89.688C150.421 90.848 147.559 91.428 144.35 91.428H130.662ZM167.028 76V68.402C167.221 68.402 167.395 68.4987 167.55 68.692C167.705 68.8467 167.821 69.098 167.898 69.446C167.975 69.7553 168.033 70.142 168.072 70.606C168.149 71.07 168.188 71.592 168.188 72.172C168.188 72.752 168.149 73.2933 168.072 73.796C168.033 74.26 167.975 74.666 167.898 75.014C167.821 75.3233 167.705 75.5747 167.55 75.768C167.395 75.9227 167.221 76 167.028 76ZM138.376 41.432V34.356H146.844V41.432H138.376ZM149.802 41.432V34.356H158.27V41.432H149.802ZM186.1 76V68.402H193.64V76H186.1ZM193.64 76V68.402C193.872 68.402 194.046 68.4987 194.162 68.692C194.316 68.8467 194.432 69.098 194.51 69.446C194.626 69.7553 194.703 70.142 194.742 70.606C194.78 71.07 194.8 71.592 194.8 72.172C194.8 72.752 194.78 73.2933 194.742 73.796C194.703 74.26 194.626 74.666 194.51 75.014C194.432 75.3233 194.316 75.5747 194.162 75.768C194.046 75.9227 193.872 76 193.64 76ZM167.018 76C166.786 76 166.612 75.9227 166.496 75.768C166.341 75.5747 166.225 75.3233 166.148 75.014C166.07 74.666 166.012 74.26 165.974 73.796C165.896 73.2933 165.858 72.752 165.858 72.172C165.858 71.3987 165.896 70.7413 165.974 70.2C166.051 69.62 166.186 69.1753 166.38 68.866C166.534 68.5567 166.747 68.402 167.018 68.402V76ZM167.018 76V68.402H182.62L177.226 72.868V46.826H186.1V76H167.018ZM169.048 88.992V81.916H177.516V88.992H169.048ZM180.474 88.992V81.916H188.942V88.992H180.474ZM193.639 76V68.402H219.971L217.825 70.258V52.916L219.623 54.424H213.185C211.677 54.424 210.478 54.6367 209.589 55.062C208.738 55.4487 208.119 56.1447 207.733 57.15C207.385 58.1553 207.211 59.586 207.211 61.442C207.211 63.4913 207.385 65.0187 207.733 66.024C208.119 66.9907 208.738 67.6287 209.589 67.938C210.478 68.2473 211.677 68.402 213.185 68.402V75.42C209.937 75.42 207.191 74.956 204.949 74.028C202.745 73.1 201.082 71.6113 199.961 69.562C198.878 67.474 198.337 64.7673 198.337 61.442C198.337 58.31 198.878 55.6613 199.961 53.496C201.082 51.3307 202.745 49.6873 204.949 48.566C207.191 47.406 209.937 46.826 213.185 46.826H226.699V76H193.639ZM193.639 76C193.445 76 193.271 75.9227 193.117 75.768C192.962 75.5747 192.846 75.3233 192.769 75.014C192.691 74.666 192.633 74.26 192.595 73.796C192.517 73.2933 192.479 72.752 192.479 72.172C192.479 71.3987 192.517 70.7413 192.595 70.2C192.672 69.62 192.807 69.1753 193.001 68.866C193.155 68.5567 193.368 68.402 193.639 68.402V76ZM209.531 41.432V34.356H218.463V41.432H209.531ZM233.351 90.964C232.926 90.964 232.404 90.9253 231.785 90.848C231.166 90.8093 230.528 90.7707 229.871 90.732L230.161 83.25C230.78 83.25 231.379 83.2693 231.959 83.308C232.539 83.3467 232.964 83.366 233.235 83.366C234.666 83.366 235.787 82.8053 236.599 81.684C237.45 80.5627 237.875 78.9387 237.875 76.812V46.826H246.749V76.812C246.749 79.5573 246.188 81.9933 245.067 84.12C243.946 86.2853 242.38 87.9673 240.369 89.166C238.358 90.3647 236.019 90.964 233.351 90.964Z" fill="black"/>
<path d="M114.472 145V102.84H131.212C134.767 102.84 137.722 103.274 140.078 104.142C142.434 105.01 144.191 106.477 145.348 108.544C146.547 110.569 147.146 113.401 147.146 117.038C147.146 120.055 146.629 122.597 145.596 124.664C144.563 126.731 143.013 128.281 140.946 129.314L147.022 145H136.854L131.956 131.546H124.268V145H114.472ZM124.268 123.61H131.46C132.824 123.61 133.919 123.341 134.746 122.804C135.614 122.225 136.234 121.44 136.606 120.448C136.978 119.456 137.164 118.319 137.164 117.038C137.164 114.93 136.689 113.359 135.738 112.326C134.787 111.293 133.279 110.776 131.212 110.776H124.268V123.61ZM160.922 145.744C157.532 145.744 154.99 144.917 153.296 143.264C151.642 141.611 150.816 139.089 150.816 135.7C150.816 133.303 151.25 131.463 152.118 130.182C153.027 128.859 154.329 127.909 156.024 127.33C157.718 126.751 159.764 126.4 162.162 126.276L169.106 125.718V124.106C169.106 122.866 168.754 121.998 168.052 121.502C167.39 120.965 166.398 120.696 165.076 120.696C163.877 120.696 162.513 120.737 160.984 120.82C159.454 120.903 157.946 121.006 156.458 121.13C154.97 121.254 153.688 121.378 152.614 121.502L152.304 114.93C153.42 114.641 154.742 114.372 156.272 114.124C157.842 113.835 159.475 113.607 161.17 113.442C162.864 113.235 164.456 113.132 165.944 113.132C168.63 113.132 170.904 113.463 172.764 114.124C174.665 114.744 176.112 115.819 177.104 117.348C178.096 118.836 178.592 120.923 178.592 123.61V137.25C178.716 137.746 179.005 138.139 179.46 138.428C179.956 138.676 180.493 138.862 181.072 138.986L180.886 145.31C180.266 145.351 179.604 145.393 178.902 145.434C178.199 145.517 177.538 145.537 176.918 145.496C176.298 145.496 175.781 145.475 175.368 145.434C174.293 145.31 173.363 145.062 172.578 144.69C171.834 144.277 171.276 143.863 170.904 143.45C170.242 143.739 169.374 144.07 168.3 144.442C167.225 144.814 166.047 145.124 164.766 145.372C163.526 145.62 162.244 145.744 160.922 145.744ZM163.278 138.862C163.98 138.862 164.683 138.779 165.386 138.614C166.13 138.449 166.832 138.263 167.494 138.056C168.155 137.849 168.692 137.663 169.106 137.498V131.36L163.65 131.856C162.492 131.98 161.645 132.352 161.108 132.972C160.57 133.551 160.302 134.377 160.302 135.452C160.302 136.485 160.55 137.312 161.046 137.932C161.542 138.552 162.286 138.862 163.278 138.862ZM186.056 145V121.626H183.328V113.814H186.056V112.388C186.056 109.453 186.345 107.139 186.924 105.444C187.503 103.708 188.495 102.489 189.9 101.786C191.305 101.042 193.207 100.67 195.604 100.67C196.389 100.67 197.257 100.711 198.208 100.794C199.159 100.835 200.068 100.918 200.936 101.042C201.804 101.125 202.486 101.207 202.982 101.29L202.92 108.42C202.3 108.42 201.618 108.42 200.874 108.42C200.13 108.379 199.51 108.358 199.014 108.358C198.146 108.358 197.443 108.482 196.906 108.73C196.41 108.978 196.059 109.371 195.852 109.908C195.645 110.445 195.542 111.21 195.542 112.202V113.814H202.424V121.626H195.542V145H186.056ZM206.251 145V113.814H215.737V145H206.251ZM206.251 109.474V101.91H215.737V109.474H206.251ZM240.287 157.834V144.194C239.378 144.483 238.2 144.814 236.753 145.186C235.307 145.558 233.984 145.744 232.785 145.744C229.851 145.744 227.495 145.124 225.717 143.884C223.981 142.644 222.721 140.846 221.935 138.49C221.15 136.134 220.757 133.261 220.757 129.872C220.757 125.739 221.295 122.453 222.369 120.014C223.444 117.534 225.139 115.757 227.453 114.682C229.809 113.607 232.868 113.07 236.629 113.07C237.663 113.07 238.944 113.132 240.473 113.256C242.044 113.339 243.656 113.442 245.309 113.566C246.963 113.69 248.451 113.814 249.773 113.938V157.834H240.287ZM235.327 137.808C236.195 137.808 237.084 137.705 237.993 137.498C238.944 137.25 239.709 137.002 240.287 136.754V121.13C239.791 121.089 239.171 121.047 238.427 121.006C237.725 120.923 237.084 120.882 236.505 120.882C234.852 120.882 233.571 121.233 232.661 121.936C231.793 122.639 231.194 123.651 230.863 124.974C230.533 126.255 230.367 127.847 230.367 129.748C230.367 132.641 230.739 134.708 231.483 135.948C232.269 137.188 233.55 137.808 235.327 137.808Z" fill="black"/>
</svg>
