<svg width="20" height="24" viewBox="0 0 20 24" fill="none" xmlns="http://www.w3.org/2000/svg">
<path d="M16.5459 9.9894L15.1049 9.3884L16.8219 8.4754C17.3457 8.2011 17.81 7.82583 18.188 7.37122C18.5661 6.91662 18.8504 6.39168 19.0246 5.82666C19.1988 5.26165 19.2595 4.66773 19.2031 4.07917C19.1466 3.4906 18.9743 2.91903 18.6959 2.3974C18.1367 1.3414 17.181 0.55073 16.0389 0.199297C14.8969 -0.152135 13.662 -0.0355545 12.6059 0.5234L2.40688 5.9284C1.6492 6.32652 1.02077 6.93246 0.595316 7.67514C0.169866 8.41781 -0.0349567 9.26642 0.00487722 10.1214C0.0456164 10.9548 0.31625 11.7607 0.786801 12.4497C1.25735 13.1388 1.90945 13.6841 2.67088 14.0254C2.70688 14.0374 4.11288 14.6254 4.11288 14.6254L2.40688 15.5264C1.69097 15.9125 1.09281 16.4851 0.675769 17.1835C0.258724 17.8818 0.038312 18.68 0.0378772 19.4934C0.0441841 20.6867 0.521084 21.8293 1.36498 22.673C2.20887 23.5167 3.35158 23.9934 4.54488 23.9994C5.26988 23.9994 5.98188 23.8254 6.62488 23.4914L16.8349 18.0854C17.591 17.6866 18.2175 17.0803 18.6409 16.3378C19.0643 15.5952 19.2669 14.7472 19.2249 13.8934C19.1819 13.059 18.9091 12.2527 18.4365 11.5637C17.9638 10.8747 17.3089 10.3299 16.5459 9.9894ZM7.21188 15.1894V8.8234L13.2189 12.0074L7.21188 15.1894Z" fill="#B5C934"/>
</svg>
