<svg width="283" height="284" viewBox="0 0 283 284" fill="none" xmlns="http://www.w3.org/2000/svg">
<g clip-path="url(#clip0_4019_1948)">
<path d="M271.138 190.148C243.681 254.256 170.541 290.171 107.115 280.483C96.7945 278.907 68.4998 274.212 43.4487 252.057C-4.77606 209.41 -15.0892 124.965 23.8122 65.4526C52.1256 22.1387 101.347 1.5025 149.573 2.73068C159.962 2.99526 201.307 0.708559 236.295 29.3172C241.433 33.5191 252.768 43.5044 262.983 59.3452C286.97 96.5423 289.032 148.366 271.138 190.148Z" fill="url(#paint0_linear_4019_1948)"/>
<path d="M209.097 279.502C209.101 279.344 209.088 279.184 209.041 279.024C206.255 269.577 192.43 263.691 192.43 263.691L186.952 264.058C183.802 272.386 184.206 277.493 184.712 279.768C184.727 279.832 184.749 279.893 184.768 279.954C189.287 280.299 198.59 280.525 209.097 279.502Z" fill="url(#paint1_linear_4019_1948)"/>
<path d="M184.769 279.954C185.012 280.713 185.668 281.305 186.507 281.456C192.936 282.612 203.153 281.682 207.444 281.201C208.39 281.096 209.082 280.347 209.097 279.502C198.589 280.525 189.287 280.299 184.769 279.954Z" fill="url(#paint2_linear_4019_1948)"/>
<path d="M184.748 257.077L187.068 266.633C187.238 267.334 187.867 267.858 188.629 267.92C189.561 267.995 190.888 268.039 192.224 267.87C193.42 267.72 194.255 266.679 194.042 265.562L192.429 257.077H184.748Z" fill="url(#paint3_linear_4019_1948)"/>
<path d="M232.823 279.858C226.772 279.713 223.644 279.104 222.025 278.538C222.021 279.052 222.025 279.576 222.044 280.119C222.066 280.699 222.567 281.162 223.185 281.159L256.406 280.975C257.467 280.969 258.086 279.917 257.626 279.086C253.27 279.393 242.177 280.082 232.823 279.858Z" fill="url(#paint4_linear_4019_1948)"/>
<path d="M257.626 279.086C257.587 279.013 257.552 278.94 257.495 278.871C254.561 275.363 247.089 268.38 232.323 265.351L225.239 265.159C225.239 265.159 222.085 269.849 222.025 278.538C223.644 279.103 226.773 279.713 232.823 279.858C242.177 280.082 253.27 279.393 257.626 279.086Z" fill="url(#paint5_linear_4019_1948)"/>
<path d="M223.926 255.975C224.005 256.427 224.975 263.293 225.351 265.954C225.44 266.587 225.976 267.077 226.651 267.145C227.857 267.269 229.81 267.381 231.517 267.081C232.438 266.92 233.105 266.163 233.105 265.283V254.506L223.926 255.975Z" fill="url(#paint6_linear_4019_1948)"/>
<path d="M218.243 130.684C218.243 130.684 235.328 186.232 235.019 256.134C235.013 257.408 233.967 258.509 232.509 258.771C230.361 259.158 227.204 259.618 224.59 259.555C223.194 259.522 222.027 258.637 221.793 257.459C219.397 245.44 207.96 176.361 200.127 165.368C200.127 165.368 192.663 227.044 194.31 258.33C194.351 259.108 193.685 259.783 192.781 259.872C191.41 260.007 189.215 260.11 186.422 259.857C185.363 259.76 184.507 259.075 184.356 258.172C182.649 248.001 172.828 187.454 173.246 143.838C173.27 141.378 180.848 130.684 180.848 130.684H218.243Z" fill="url(#paint7_linear_4019_1948)"/>
<path d="M162.03 51.8011C183.282 38.6808 215.284 45.3217 227.662 46.6558C231.72 47.0933 235.432 48.8052 238.107 51.4535C248.715 61.9552 275.016 103.043 232.411 123.308C229.569 121.26 228.818 115.445 226.295 110.797C232.389 103.173 236.002 95.6027 229.65 84.148C229.433 85.056 229.164 85.9549 228.838 86.8394C220.083 110.569 219.616 130.316 219.635 134.866C219.638 135.484 219.205 136.04 218.534 136.271C207.011 140.221 184.831 137.87 177.385 136.921C176.02 136.747 175.101 135.659 175.29 134.489C178.944 111.84 160.19 74.5812 155.237 65.249C154.88 64.5774 159.225 57.2783 162.03 51.8011Z" fill="url(#paint8_linear_4019_1948)"/>
<path d="M189.817 28.1033L187.408 44.8434C187.186 46.3811 188.244 47.8129 189.834 48.107C193.128 48.7164 198.814 49.2379 204.066 47.1291C205.691 46.4763 206.573 44.7768 206.109 43.1592L202.252 22.2034L189.817 28.1033Z" fill="url(#paint9_linear_4019_1948)"/>
<path d="M178.091 11.5489C177.958 11.9167 178.408 36.4944 178.408 36.4944L193.829 34.1815L197.209 10.3899C197.209 10.3899 180.295 5.38954 178.091 11.5489Z" fill="url(#paint10_linear_4019_1948)"/>
<path d="M192.049 14.0822C192.569 14.4328 192.851 15.0029 192.815 15.6331L192.105 27.9811C192.094 28.1685 192.057 28.3538 191.991 28.5376C191.622 29.5513 190.174 32.7231 186.821 31.5931C183.962 30.6299 181.316 29.7828 179.208 30.0423C177.978 30.1936 177.003 31.2453 177.028 32.3641C177.08 34.6687 177.287 39.3055 178.109 43.3278C178.315 44.3359 179.367 44.9209 180.511 44.6813C183.531 44.049 189.412 42.6551 194.092 40.5553C194.86 40.2106 195.409 39.5288 195.526 38.777C196.039 35.468 197.517 26.1943 198.368 23.5848C199.16 21.1606 202.587 19.843 204.195 19.3487C204.804 19.1611 205.329 18.7613 205.65 18.2372C206.613 16.6654 207.956 13.3828 203.793 11.6804C202.758 11.2572 202.413 10.074 202.987 9.05325C204.016 7.2239 204.695 4.53907 201.387 2.83163C198.039 1.10278 194.935 2.62667 193.055 4.03952C192.223 4.66482 191.073 4.80882 190.291 4.30876C189.945 4.08606 189.478 3.99885 188.859 4.23708C187.692 4.68611 186.489 4.28098 186.137 3.26008C185.531 1.50924 184.019 -0.329234 180.288 0.0502439C173.445 0.746021 171.321 7.5611 172.267 11.6746C173.211 15.7883 180.636 14.6484 184.612 12.8188C187.533 11.4747 190.619 13.1161 192.049 14.0822Z" fill="url(#paint11_linear_4019_1948)"/>
<path d="M198.056 28.1502C198.056 28.1502 196.756 20.878 199.907 19.2874C203.056 17.6964 207.022 18.8296 205.077 23.9393C202.655 30.2951 198.056 28.1502 198.056 28.1502Z" fill="url(#paint12_linear_4019_1948)"/>
<path d="M230.811 82.3735C235.455 71.5001 233.77 58.3702 233.753 58.2388L232.473 58.3638C232.49 58.4929 234.139 71.3708 229.6 81.9949L230.811 82.3735Z" fill="#B5C934"/>
<path d="M137.794 116.807C137.49 124.375 137.618 132.755 138.318 142.039L145.59 142.817C145.59 142.817 148.593 131.515 153.283 118.311C146.074 118.948 140.911 117.866 137.794 116.807Z" fill="url(#paint13_linear_4019_1948)"/>
<path d="M173.768 79.8292C173.768 79.8292 171.95 58.0557 161.951 51.8347C161.951 51.8347 139.856 65.429 137.794 116.807C140.911 117.866 146.075 118.949 153.283 118.311C158.588 103.38 166.05 86.0198 173.768 79.8292Z" fill="url(#paint14_linear_4019_1948)"/>
<path d="M142.863 139.707C142.863 139.707 147.408 141.261 148.317 147.483C149.226 153.704 143.772 158.37 139.227 157.592C134.682 156.814 129.811 145.15 138.155 139.707C146.499 134.264 142.863 139.707 142.863 139.707Z" fill="#FFD8D6"/>
<path d="M94.2398 16.1936C94.2398 16.1936 87.7559 21.146 78.7532 24.8429C73.7332 26.9044 63.9676 29.9513 62.6787 38.851C62.0136 43.4456 58.0393 47.1257 52.6898 47.8272C39.366 49.574 18.8332 55.493 15.5481 75.2833C13.0405 90.389 22.042 96.1169 31.4884 98.0992C38.4265 99.5555 43.0375 105.329 41.6337 111.322C40.2879 117.07 42.295 123.714 53.9346 128.969C80.0176 140.743 106.066 101.074 106.066 101.074L111.404 31.8079L94.2398 16.1936Z" fill="#252528"/>
<path d="M34.7251 89.1801C34.3504 89.1801 33.9144 89.0352 33.5364 88.8245C27.4611 85.4378 24.2219 78.4479 25.6591 71.8265C26.5198 67.8602 28.8181 64.4398 32.1304 62.195C34.4797 60.6023 37.2742 59.6288 39.9351 58.7681C44.4296 57.315 49.0591 56.0347 53.6953 54.9628C54.0778 54.8744 54.4609 54.7872 54.8446 54.6997C57.5589 54.0815 60.366 53.4422 62.9085 52.3533C66.1756 50.9543 68.5578 48.9186 69.6155 46.6212C70.2722 45.1945 70.4611 43.6167 70.6436 42.0912C70.866 40.2298 71.0963 38.3049 72.1834 36.6624C72.1965 36.6425 72.2234 36.6372 72.243 36.6501C72.2628 36.6631 72.2686 36.6895 72.2555 36.7093C71.1795 38.3349 70.9506 40.2495 70.7292 42.1012C70.5457 43.6336 70.3565 45.2179 69.6936 46.6566C68.6272 48.9733 66.2296 51.0243 62.943 52.4321C60.3928 53.5241 57.5823 54.164 54.8639 54.7832C54.4805 54.8703 54.0973 54.9579 53.7149 55.0462C49.0811 56.1175 44.4539 57.397 39.962 58.8496C37.3069 59.7082 34.5192 60.6789 32.1789 62.2656C28.8853 64.4978 26.5994 67.8995 25.7433 71.8444C24.3139 78.4294 27.5363 85.3814 33.579 88.7497C34.0476 89.0114 34.9468 89.3265 35.3464 88.8508C35.3616 88.8328 35.3884 88.8301 35.4069 88.8455C35.4252 88.8604 35.4278 88.8871 35.4124 88.9055C35.2499 89.0996 35.0045 89.1801 34.7251 89.1801Z" fill="white"/>
<path d="M33.1637 82.9297C33.1509 82.9297 33.1381 82.924 33.1296 82.913C30.7853 79.9146 29.5646 76.7677 29.5996 73.8123C29.641 70.3555 31.5152 67.1421 34.491 65.4259C34.5108 65.4148 34.5374 65.4208 34.5498 65.4416C34.5616 65.4619 34.5546 65.488 34.534 65.5C31.5843 67.2008 29.7268 70.3866 29.6858 73.8135C29.651 76.7492 30.8654 79.8779 33.1976 82.8609C33.212 82.8793 33.2086 82.9064 33.1897 82.9206C33.1822 82.9266 33.1728 82.9297 33.1637 82.9297Z" fill="white"/>
<path d="M121.957 75.1633C121.957 75.1633 136.501 110.934 141.046 142.817L136.501 146.704C136.501 146.704 121.957 106.268 111.05 94.6041L121.957 75.1633Z" fill="url(#paint15_linear_4019_1948)"/>
<path d="M25.9049 272.048L24.9189 278.982C24.7321 280.298 23.5212 281.339 21.9822 281.489C19.3838 281.743 15.2141 282.003 11.1343 281.634C9.34359 281.472 8.18094 279.921 8.72653 278.453C9.72096 275.775 11.5404 271.757 14.1638 269.393H23.1555C24.8177 269.393 26.1059 270.636 25.9049 272.048Z" fill="url(#paint16_linear_4019_1948)"/>
<path d="M96.3301 190.815L97.8478 198.453C97.8478 198.453 92.7656 242.494 91.8615 260.111C91.7198 262.873 92.5548 265.602 94.2494 267.957L103.087 280.234L80.6269 268.895L80.1798 266.55L83.8564 262.225L79.0405 212.889C78.7579 209.99 79.4569 207.083 81.0541 204.516L85.6998 197.05L96.3301 190.815Z" fill="url(#paint17_linear_4019_1948)"/>
<path d="M104.566 282.012H97.3988C96.0571 282.012 94.792 281.486 93.9738 280.575C91.7394 278.092 87.11 273.246 84.8963 273.119C81.9165 272.949 82.2978 282.012 82.2978 282.012H80.6274L78.5117 270.75C77.9794 267.917 79.6265 265.109 82.6008 263.782C82.6008 263.782 83.282 268.092 86.9757 269.998C90.6689 271.905 102.006 278.731 102.006 278.731C102.006 278.731 103.394 278.561 104.919 278.797C107.18 279.147 106.864 282.012 104.566 282.012Z" fill="url(#paint18_linear_4019_1948)"/>
<path d="M65.5678 194.442C65.5678 194.442 35.7943 242.76 31.0614 253.792C26.3288 264.824 24.6707 274.026 24.6072 274.897C24.5079 276.259 22.5284 277.566 17.0713 277.566C14.255 277.566 12.8754 276.599 12.2003 275.665C11.6242 274.867 11.5944 273.869 12.0798 273.028C13.8019 270.047 19.2676 260.518 21.2919 256.195C23.7084 251.035 28.9071 227.649 31.7583 219.519C34.6094 211.387 37.832 202.567 50.2478 194.442C50.2478 194.442 58.7704 187.301 65.5678 194.442Z" fill="url(#paint19_linear_4019_1948)"/>
<path d="M84.3765 115.273C92.0568 87.4306 72.6006 71.6834 72.6006 71.6834C84.877 61.602 107.245 57.0144 107.245 57.0144C107.245 57.0144 128.588 70.3641 126.056 80.813C124.572 86.9371 111.054 117.496 111.054 117.496C111.054 117.496 98.5535 122.557 84.3765 115.273Z" fill="#B5C934"/>
<path d="M67.3484 129.056C70.474 121.001 84.3764 115.272 84.3764 115.272C98.5533 122.557 111.054 117.496 111.054 117.496C111.054 117.496 113.857 126.663 111.922 135.183C109.987 143.702 97.8481 198.453 97.8481 198.453C78.7206 201.769 49.3027 195.117 49.3027 195.117C61.4862 176.611 64.2227 137.111 67.3484 129.056Z" fill="#252528"/>
<path d="M93.291 38.6156L87.0467 62.6108C86.4489 64.7243 88.7013 64.3783 91.1989 63.9756C95.2892 63.316 100.561 61.957 102.324 59.234C102.503 58.9569 102.593 58.6435 102.643 58.3298L105.326 41.6908C105.539 40.3708 104.704 39.0896 103.281 38.5494L98.1039 36.5858C96.1107 35.8297 93.8038 36.8025 93.291 38.6156Z" fill="url(#paint20_linear_4019_1948)"/>
<path d="M112.96 22.8421C112.96 22.8421 117.706 28.8523 116.714 39.0096C115.721 49.167 110.098 50.737 105.756 48.796C101.413 46.8547 95.469 43.1604 92.5299 34.4363C89.5905 25.7121 106.614 15.2827 112.96 22.8421Z" fill="url(#paint21_linear_4019_1948)"/>
<path d="M99.605 32.9664C99.605 32.9664 102.568 19.0184 114.439 26.0033L116.089 29.2939C116.089 29.2939 124.683 25.7594 119.627 18.5407C114.572 11.322 104.584 8.72966 96.0225 14.8787C87.4612 21.028 83.2357 26.0538 85.6069 32.9023C87.9783 39.7507 93.0548 36.676 93.0548 36.676C93.0548 36.676 92.7995 31.4559 95.24 30.2195C97.6805 28.9833 98.6474 32.8385 98.6474 32.8385L99.605 32.9664Z" fill="url(#paint22_linear_4019_1948)"/>
<path d="M97.7546 35.3263C97.7546 35.3263 99.326 28.1687 94.5471 28.5104C89.7681 28.8523 93.4803 35.3547 95.0747 37.6974L97.7546 35.3263Z" fill="url(#paint23_linear_4019_1948)"/>
<path fill-rule="evenodd" clip-rule="evenodd" d="M128.444 124.637C128.444 124.637 127.318 118.7 131.935 117.42C131.935 117.42 129.844 110.571 136.378 110.593C136.378 110.593 147.551 96.8198 156.562 110.938C156.562 110.938 176.729 112.151 168.753 127.295C168.753 127.295 174.039 131.986 166.347 135.769C166.347 135.769 160.129 154.305 146.114 142.356L128.444 124.637Z" fill="url(#paint24_linear_4019_1948)"/>
<path d="M192.126 111.279C187.941 107.018 184.912 112.741 184.912 112.741C181.544 113.866 184.912 121.048 184.912 121.048C182.851 125.011 172.093 145.378 166.261 150.402C159.794 155.976 170.197 157.427 170.197 157.427C170.197 157.427 181.822 152.033 188.339 122.682C188.393 122.662 188.446 122.64 188.491 122.606C189.381 121.934 196.31 115.541 192.126 111.279Z" fill="#FFB6B3"/>
<path d="M124.703 151.327C119.458 146.807 109.685 127.717 106.179 120.664C106.814 119.175 108.915 113.711 106.01 112.741C106.01 112.741 102.981 107.018 98.7966 111.279C94.9368 115.21 100.53 120.95 102.12 122.346C105.415 138.873 117.418 157.422 117.418 157.422C117.418 157.422 131.172 156.901 124.703 151.327Z" fill="#FFB6B3"/>
<path fill-rule="evenodd" clip-rule="evenodd" d="M145.615 275.636C145.615 275.636 146.552 279.09 146.488 281.64C146.477 282.041 146.177 282.375 145.778 282.43C143.427 282.751 135.402 283.705 130.993 282.432C130.638 282.329 130.395 282.001 130.406 281.634C130.446 280.262 131.42 277.041 139.473 276.219L145.615 275.636Z" fill="#252528"/>
<path fill-rule="evenodd" clip-rule="evenodd" d="M131.759 222.814C130.767 223.456 138.243 275.517 140.056 275.895C140.056 275.895 142.127 277.805 145.324 275.629C143.479 258.661 142.355 241.45 143.349 223.863L131.759 222.814Z" fill="#FFC5C2"/>
<path fill-rule="evenodd" clip-rule="evenodd" d="M163.519 275.636C163.519 275.636 164.457 279.09 164.392 281.64C164.382 282.041 164.082 282.375 163.682 282.43C161.332 282.751 153.306 283.705 148.898 282.432C148.542 282.329 148.3 282.001 148.31 281.634C148.351 280.262 149.324 277.041 157.377 276.219L163.519 275.636Z" fill="url(#paint25_linear_4019_1948)"/>
<path fill-rule="evenodd" clip-rule="evenodd" d="M149.664 222.814C148.673 223.456 156.149 275.517 157.962 275.895C157.962 275.895 160.033 277.805 163.23 275.629C161.385 258.661 160.261 241.45 161.254 223.863L149.664 222.814Z" fill="#FFC5C2"/>
<path fill-rule="evenodd" clip-rule="evenodd" d="M157.98 191.216C157.98 191.216 133.598 192.322 127.792 194.344C127.792 194.344 128.507 214.001 130.89 226.081C130.983 226.549 131.34 226.921 131.809 227.028C133.373 227.388 137.312 227.903 143.553 226.169C144.108 226.015 144.477 225.493 144.438 224.923L143.793 217.093C143.757 216.566 144.158 216.112 144.688 216.076L145.341 215.977C145.893 215.94 146.364 216.371 146.369 216.92L147.602 224.861C147.606 225.375 147.937 225.83 148.428 225.995C150.261 226.611 155.03 227.759 161.319 225.86C161.826 225.706 162.177 225.242 162.181 224.717C162.245 215.079 160.498 203.552 157.98 191.216Z" fill="url(#paint26_linear_4019_1948)"/>
<path fill-rule="evenodd" clip-rule="evenodd" d="M148.841 192.911C148.841 192.911 151.922 201.409 159.36 201.998L157.716 192.307C157.716 192.307 151.955 192.265 148.841 192.911Z" fill="url(#paint27_linear_4019_1948)"/>
<path fill-rule="evenodd" clip-rule="evenodd" d="M169.409 146.499C169.409 146.499 158.389 153.524 145.009 152.744C133.849 152.093 127.068 149.269 123.299 146.087C121.95 144.949 120.034 144.763 118.544 145.713C116.915 146.753 114.746 148.37 112.467 150.731C111.894 151.324 111.778 152.232 112.214 152.93C115.465 158.136 118.93 161.778 122.605 163.895C123.849 165.254 124.515 167.037 124.467 168.872L123.789 194.45C123.769 195.16 124.266 195.777 124.969 195.909C129.861 196.83 148.424 200.035 159.964 198.015V170.427C159.964 168.376 161.108 166.51 162.916 165.516C165.34 164.181 168.949 161.568 172.559 156.647L169.409 146.499Z" fill="url(#paint28_linear_4019_1948)"/>
<path fill-rule="evenodd" clip-rule="evenodd" d="M150.297 140.6L151.507 153.77C151.507 153.77 144.496 157.831 138.466 154.28L139.537 142.777L150.297 140.6Z" fill="#FFC4C1"/>
<path fill-rule="evenodd" clip-rule="evenodd" d="M137.493 116.256C137.493 116.256 116.314 131.96 128.275 143.299C139.563 154.001 150.139 142.338 150.139 142.338C150.139 142.338 158.229 138.361 157.926 132.988C157.623 127.615 141.769 114.886 137.493 116.256Z" fill="#FFC5C2"/>
<path fill-rule="evenodd" clip-rule="evenodd" d="M153.025 138.934C152.25 138.566 151.558 137.925 151.045 136.977C150.281 135.563 150.195 133.845 150.631 132.301C150.743 131.904 150.882 131.455 150.666 131.104C150.405 130.68 149.81 130.662 149.312 130.611C147.789 130.451 146.382 129.456 145.737 128.078C145.091 126.701 145.23 124.993 146.089 123.735C144.045 123.211 143.822 121.617 142.374 120.621C141.044 119.708 139.128 120.485 137.665 119.888C136.586 119.451 134.346 117.817 134.651 116.387C134.787 115.747 136.652 114.389 137.253 113.967C139.953 112.074 142.898 112.64 145.285 114.78C152.175 120.95 158.344 126.93 159.66 130.053C160.582 132.242 160.521 135.063 159.064 137.014C157.556 139.033 155.014 139.878 153.025 138.934Z" fill="url(#paint29_linear_4019_1948)"/>
<path fill-rule="evenodd" clip-rule="evenodd" d="M147.71 143.55L152.453 137.87C152.453 137.87 157.839 137.399 155.952 140.735C154.064 144.07 149.201 144.561 147.71 143.55Z" fill="#FFC5C2"/>
<path d="M77.7288 72.2455C75.4546 71.1921 72.6199 71.5203 70.6436 72.9476C66.7089 75.7893 57.6739 84.2838 56.7305 102.847C55.5206 126.655 97.8692 120.444 97.8692 120.444L100.289 115.269C100.289 115.269 70.0401 114.234 70.0401 103.882C70.0401 96.5919 78.8235 88.1182 82.7273 84.7121C84.2224 83.4079 84.8796 81.5206 84.3301 79.7554C83.3956 76.7524 80.7658 73.6522 77.7288 72.2455Z" fill="url(#paint30_linear_4019_1948)"/>
<path d="M94.7411 115.273C94.7411 115.273 99.08 113.198 102.71 112.163C106.34 111.128 107.55 112.163 107.55 112.163C107.55 112.163 103.92 113.198 102.71 114.233C101.5 115.268 108.502 115.276 111.051 115.273C113.6 115.269 114.049 120.36 111.404 121.955C108.76 123.55 101.5 126.655 94.2402 120.444L94.7411 115.273Z" fill="url(#paint31_linear_4019_1948)"/>
<path d="M226.604 110.638C227.719 115.063 230.403 120.007 232.411 123.309C225.603 124.932 217.5 125.718 207.869 125.401C206.037 125.342 204.702 125.177 203.104 126.069L200.037 128.128L197.736 116.074C197.736 116.074 213.667 117.432 226.604 110.638Z" fill="url(#paint32_linear_4019_1948)"/>
<path d="M200.851 127.58C197.734 130.037 190.27 129.292 186.386 128.252C181.671 127.184 180.751 124.5 181.336 121.175C185.958 119.686 189.964 117.458 193.458 114.613C192.708 111.033 191.173 109.919 189.352 109.702C195.304 111.169 199.999 113.371 202.579 116.807L200.851 127.58Z" fill="url(#paint33_linear_4019_1948)"/>
<path d="M162.759 24.949C162.489 19.9209 159.043 15.6964 154.751 15.1617C151.338 14.7363 148.302 16.6495 146.685 19.7447C145.065 16.4972 141.999 14.2829 138.522 14.3769C134.099 14.4965 130.507 18.4785 130.223 23.6027C130.036 26.9887 131.276 30.1007 133.31 32.1986L145.794 42.2822C146.334 42.7177 147.037 42.7374 147.574 42.3324L159.803 33.1322C161.755 31.2194 162.938 28.2693 162.759 24.949Z" fill="#FFC4C1"/>
</g>
<defs>
<linearGradient id="paint0_linear_4019_1948" x1="307.228" y1="285.869" x2="96.3781" y2="99.8189" gradientUnits="userSpaceOnUse">
<stop stop-color="#B5C934"/>
<stop offset="0.591346" stop-color="#FFFCF8"/>
</linearGradient>
<linearGradient id="paint1_linear_4019_1948" x1="184.367" y1="271.968" x2="209.099" y2="271.968" gradientUnits="userSpaceOnUse">
<stop stop-color="#252528"/>
<stop offset="1" stop-color="#3A3A3E"/>
</linearGradient>
<linearGradient id="paint2_linear_4019_1948" x1="201.944" y1="261.92" x2="228.416" y2="165.749" gradientUnits="userSpaceOnUse">
<stop stop-color="#1A1A1C"/>
<stop offset="1" stop-color="#252528"/>
</linearGradient>
<linearGradient id="paint3_linear_4019_1948" x1="191.001" y1="247.785" x2="186.971" y2="283.254" gradientUnits="userSpaceOnUse">
<stop stop-color="#FFD8D6"/>
<stop offset="1" stop-color="#FFAEAA"/>
</linearGradient>
<linearGradient id="paint4_linear_4019_1948" x1="241.675" y1="272.857" x2="268.147" y2="176.686" gradientUnits="userSpaceOnUse">
<stop stop-color="#1A1A1C"/>
<stop offset="1" stop-color="#252528"/>
</linearGradient>
<linearGradient id="paint5_linear_4019_1948" x1="222.026" y1="272.531" x2="257.626" y2="272.531" gradientUnits="userSpaceOnUse">
<stop stop-color="#252528"/>
<stop offset="1" stop-color="#3A3A3E"/>
</linearGradient>
<linearGradient id="paint6_linear_4019_1948" x1="229.569" y1="251.562" x2="225.529" y2="287.11" gradientUnits="userSpaceOnUse">
<stop stop-color="#FFD8D6"/>
<stop offset="1" stop-color="#FFAEAA"/>
</linearGradient>
<linearGradient id="paint7_linear_4019_1948" x1="383.225" y1="100.052" x2="291.879" y2="149.919" gradientUnits="userSpaceOnUse">
<stop stop-color="#1A1A1C"/>
<stop offset="1" stop-color="#252528"/>
</linearGradient>
<linearGradient id="paint8_linear_4019_1948" x1="202.84" y1="50.72" x2="223.493" y2="254.66" gradientUnits="userSpaceOnUse">
<stop stop-color="#B5C934"/>
<stop offset="1" stop-color="#8A9A1A"/>
</linearGradient>
<linearGradient id="paint9_linear_4019_1948" x1="202.931" y1="16.3561" x2="178.504" y2="99.3156" gradientUnits="userSpaceOnUse">
<stop stop-color="#FFD8D6"/>
<stop offset="1" stop-color="#FFAEAA"/>
</linearGradient>
<linearGradient id="paint10_linear_4019_1948" x1="183.579" y1="12.9384" x2="200.32" y2="55.2201" gradientUnits="userSpaceOnUse">
<stop stop-color="#FFD8D6"/>
<stop offset="1" stop-color="#FFAEAA"/>
</linearGradient>
<linearGradient id="paint11_linear_4019_1948" x1="203.486" y1="27.2162" x2="169.416" y2="17.8037" gradientUnits="userSpaceOnUse">
<stop stop-color="#1A1A1C"/>
<stop offset="1" stop-color="#252528"/>
</linearGradient>
<linearGradient id="paint12_linear_4019_1948" x1="216.348" y1="50.4275" x2="201.187" y2="22.7826" gradientUnits="userSpaceOnUse">
<stop stop-color="#FFD8D6"/>
<stop offset="1" stop-color="#FFAEAA"/>
</linearGradient>
<linearGradient id="paint13_linear_4019_1948" x1="151.574" y1="58.9573" x2="131.753" y2="254.674" gradientUnits="userSpaceOnUse">
<stop stop-color="#FFD8D6"/>
<stop offset="1" stop-color="#FFAEAA"/>
</linearGradient>
<linearGradient id="paint14_linear_4019_1948" x1="159.616" y1="59.4257" x2="139.692" y2="256.152" gradientUnits="userSpaceOnUse">
<stop stop-color="#B5C934"/>
<stop offset="1" stop-color="#8A9A1A"/>
</linearGradient>
<linearGradient id="paint15_linear_4019_1948" x1="147.16" y1="-86.2844" x2="92.233" y2="456.078" gradientUnits="userSpaceOnUse">
<stop stop-color="#FFD8D6"/>
<stop offset="1" stop-color="#FFAEAA"/>
</linearGradient>
<linearGradient id="paint16_linear_4019_1948" x1="-38.614" y1="-234.832" x2="-25.7303" y2="-115.165" gradientUnits="userSpaceOnUse">
<stop stop-color="#1A1A1C"/>
<stop offset="1" stop-color="#252528"/>
</linearGradient>
<linearGradient id="paint17_linear_4019_1948" x1="97.7969" y1="334.296" x2="76.6127" y2="84.6177" gradientUnits="userSpaceOnUse">
<stop stop-color="#FFD8D6"/>
<stop offset="1" stop-color="#FFAEAA"/>
</linearGradient>
<linearGradient id="paint18_linear_4019_1948" x1="35.7248" y1="-242.836" x2="48.6085" y2="-123.169" gradientUnits="userSpaceOnUse">
<stop stop-color="#1A1A1C"/>
<stop offset="1" stop-color="#252528"/>
</linearGradient>
<linearGradient id="paint19_linear_4019_1948" x1="47.5267" y1="337.239" x2="26.4696" y2="89.0574" gradientUnits="userSpaceOnUse">
<stop stop-color="#FFD8D6"/>
<stop offset="1" stop-color="#FFAEAA"/>
</linearGradient>
<linearGradient id="paint20_linear_4019_1948" x1="101.087" y1="87.9979" x2="97.1279" y2="58.7893" gradientUnits="userSpaceOnUse">
<stop stop-color="#FFD8D6"/>
<stop offset="1" stop-color="#FFAEAA"/>
</linearGradient>
<linearGradient id="paint21_linear_4019_1948" x1="103.045" y1="58.3982" x2="107.472" y2="-14.0863" gradientUnits="userSpaceOnUse">
<stop stop-color="#FFD8D6"/>
<stop offset="1" stop-color="#FFAEAA"/>
</linearGradient>
<linearGradient id="paint22_linear_4019_1948" x1="126.62" y1="8.31406" x2="-4.48925" y2="98.2246" gradientUnits="userSpaceOnUse">
<stop stop-color="#1A1A1C"/>
<stop offset="1" stop-color="#252528"/>
</linearGradient>
<linearGradient id="paint23_linear_4019_1948" x1="93.4101" y1="59.1336" x2="97.83" y2="-13.2459" gradientUnits="userSpaceOnUse">
<stop stop-color="#FFD8D6"/>
<stop offset="1" stop-color="#FFAEAA"/>
</linearGradient>
<linearGradient id="paint24_linear_4019_1948" x1="138.411" y1="129.302" x2="175.779" y2="117.753" gradientUnits="userSpaceOnUse">
<stop stop-color="#1A1A1C"/>
<stop offset="1" stop-color="#252528"/>
</linearGradient>
<linearGradient id="paint25_linear_4019_1948" x1="164.405" y1="279.38" x2="148.321" y2="279.304" gradientUnits="userSpaceOnUse">
<stop stop-color="#1A1A1C"/>
<stop offset="1" stop-color="#252528"/>
</linearGradient>
<linearGradient id="paint26_linear_4019_1948" x1="161.321" y1="208.693" x2="128.807" y2="210.944" gradientUnits="userSpaceOnUse">
<stop stop-color="#1A1A1C"/>
<stop offset="1" stop-color="#252528"/>
</linearGradient>
<linearGradient id="paint27_linear_4019_1948" x1="160.221" y1="187.863" x2="152.15" y2="200.725" gradientUnits="userSpaceOnUse">
<stop stop-color="#1A1A1C"/>
<stop offset="1" stop-color="#252528"/>
</linearGradient>
<linearGradient id="paint28_linear_4019_1948" x1="92.9031" y1="222.476" x2="178.279" y2="126.049" gradientUnits="userSpaceOnUse">
<stop stop-color="#B5C934"/>
<stop offset="1" stop-color="#8A9A1A"/>
</linearGradient>
<linearGradient id="paint29_linear_4019_1948" x1="140.094" y1="129.222" x2="167.665" y2="117.517" gradientUnits="userSpaceOnUse">
<stop stop-color="#1A1A1C"/>
<stop offset="1" stop-color="#252528"/>
</linearGradient>
<linearGradient id="paint30_linear_4019_1948" x1="56.0806" y1="73.8393" x2="102.915" y2="139.578" gradientUnits="userSpaceOnUse">
<stop stop-color="#FFD8D6"/>
<stop offset="1" stop-color="#FFAEAA"/>
</linearGradient>
<linearGradient id="paint31_linear_4019_1948" x1="64.2839" y1="64.282" x2="113.63" y2="133.545" gradientUnits="userSpaceOnUse">
<stop stop-color="#FFD8D6"/>
<stop offset="1" stop-color="#FFAEAA"/>
</linearGradient>
<linearGradient id="paint32_linear_4019_1948" x1="192.416" y1="133.615" x2="229.332" y2="110.545" gradientUnits="userSpaceOnUse">
<stop stop-color="#FFD8D6"/>
<stop offset="1" stop-color="#FFAEAA"/>
</linearGradient>
<linearGradient id="paint33_linear_4019_1948" x1="186.409" y1="124.002" x2="223.323" y2="100.933" gradientUnits="userSpaceOnUse">
<stop stop-color="#FFD8D6"/>
<stop offset="1" stop-color="#FFAEAA"/>
</linearGradient>
<clipPath id="clip0_4019_1948">
<rect width="283" height="284" fill="white"/>
</clipPath>
</defs>
</svg>
